<?xml version="1.0" standalone="no"?><!DOCTYPE svg PUBLIC "-//W3C//DTD SVG 1.1//EN" "http://www.w3.org/Graphics/SVG/1.1/DTD/svg11.dtd"><svg t="1767515887002" class="icon" viewBox="0 0 1024 1024" version="1.1" xmlns="http://www.w3.org/2000/svg" p-id="1651" xmlns:xlink="http://www.w3.org/1999/xlink" width="200" height="200"><path d="M867.25442 241.830451H610.585822L854.356536 128.070648l-18.902971-40.506951L500.519174 241.687107 171.44755 85.469851l-19.051434 41.367015 243.177884 114.993585H152.066425c-49.373798 0-89.397475 40.024701-89.397476 89.397475V822.920185c0 49.373798 40.025725 89.398499 89.397476 89.398499H867.25442c49.374822 0 89.398499-40.025725 89.398499-89.398499V331.22895c0-49.373798-40.025725-89.398499-89.398499-89.398499z m-22.349369 625.788472H174.416817c-37.029837 0-67.048107-30.01827-67.048106-67.049131V353.579343c0-37.029837 30.01827-67.04913 67.048106-67.04913h670.488234c37.029837 0 67.048107 30.01827 67.048106 67.04913v446.990449h0.001024c0 37.030861-30.01827 67.04913-67.04913 67.049131z" fill="#3E3A39" p-id="1652"></path><path d="M554.361208 331.22895H241.464924c-49.373798 0-89.398499 40.025725-89.398499 89.3985v312.894236c0 49.373798 40.026749 89.398499 89.398499 89.398499h312.89526c49.373798 0 89.397475-40.025725 89.397475-89.398499V420.62745c0.001024-49.373798-40.024701-89.398499-89.396451-89.3985z m-22.350393 446.992497h-268.196522c-37.029837 0-67.048107-30.01827-67.048107-67.048106V442.976819c0-37.029837 30.01827-67.048107 67.048107-67.048107h268.195498c37.030861 0 67.048107 30.01827 67.048107 67.048107v268.195498h0.001023c0 37.029837-30.01827 67.04913-67.048106 67.04913zM777.85592 510.025949c49.372774 0 89.397475-40.024701 89.397476-89.397475 0.001024-49.374822-40.024701-89.398499-89.397476-89.3985-49.373798 0-89.397475 40.025725-89.397475 89.3985 0 49.372774 40.024701 89.397475 89.397475 89.397475z m0-134.097237c24.685875 0 44.699762 20.012863 44.699762 44.699762 0.001024 24.685875-20.011839 44.698738-44.699762 44.698737-24.685875 0-44.699762-20.012863-44.699761-44.698737 0-24.687923 20.013886-44.699762 44.699761-44.699762zM688.458445 755.872078h178.796998v44.697714H688.458445zM688.458445 666.472555h178.796998v44.699762H688.458445z" fill="#3E3A39" p-id="1653"></path></svg>